# xmcd
#
# Track frame offsets:
#	150
#	12970
#	28345
#	44177
#	56557
#	72869
#	88462
#	101260
#	119737
#	136650
#	151697
#	165875
#	177169
#	190418
#	208424
#	224454
#	240926
#	256977
#	274073
#	290635
#	303352
#
# Disc length: 4222 seconds
#
# Revision: 1
# Processed by: cddbd v1.5.1PL2 Copyright (c) Steve Scherf et al.
# Submitted via: audiograbber 1.82.02
#
DISCID=37107c15
DTITLE=Vários - Só Batidão
DYEAR=2006
DGENRE=Sertanejo
TTITLE0=Rio Negro e Solimões - Club do Batridão
TTITLE1=Edson e Hudson - Solte a Garganta
TTITLE2=Gino e Geno - Bebo Pra Carai
TTITLE3=Tradição - O Calderão
TTITLE4=Janio e Junior - O Certinho e o Safado
TTITLE5=Bruno e Marrone - Que Pesca que Nada
TTITLE6=Teodoro e Sampaio - Querência Amada
TTITLE7=Rick e Renner - Galera da Babedeira
TTITLE8=Zezé di Camargo e Luciano - Fera Mansa
TTITLE9=Zé Henrique e Gabriel - Tremele
TTITLE10=Rio Negro e Solinões - Ajeite o Trem Ai
TTITLE11=Janio e Junior - O Quebrado
TTITLE12=Edson e Hudson - Abre a Janela
TTITLE13=Gino e Geno - É Pra Tomar Todas
TTITLE14=Emilio e Eduardo - Peão de Caminhonete
TTITLE15=Bruno e Marrone e Calipso - Porque Choras
TTITLE16=Teodoro e Sampaio - Chapa o Coco
TTITLE17=Tradição - O Barquinho
TTITLE18=Janio e Junior - O Gostoso
TTITLE19=Rio Negro e Solimões - Balançou Sacudiu
TTITLE20=Gian e Giovani - Peão de Vitrine
EXTD=
EXTT0=
EXTT1=
EXTT2=
EXTT3=
EXTT4=
EXTT5=
EXTT6=
EXTT7=
EXTT8=
EXTT9=
EXTT10=
EXTT11=
EXTT12=
EXTT13=
EXTT14=
EXTT15=
EXTT16=
EXTT17=
EXTT18=
EXTT19=
EXTT20=
PLAYORDER=
